<mxfile host="app.diagrams.net" modified="2022-04-30T22:23:22.991Z" agent="5.0 (Windows NT 10.0; Win64; x64) AppleWebKit/537.36 (KHTML, like Gecko) Chrome/100.0.4896.127 Safari/537.36" etag="cGctenwWsOieX0P5LR-L" version="17.5.0" type="github">
  <diagram id="BrNaa9qSeSl_PlG5yOju" name="Page-1">
    <mxGraphModel dx="1422" dy="762" grid="1" gridSize="10" guides="1" tooltips="1" connect="1" arrows="1" fold="1" page="1" pageScale="1" pageWidth="827" pageHeight="1169" math="0" shadow="0">
      <root>
        <mxCell id="0" />
        <mxCell id="1" parent="0" />
        <mxCell id="8QLlg-33kmUOQYi8h0Aq-8" value="tforcov wrapper" style="edgeStyle=orthogonalEdgeStyle;rounded=0;orthogonalLoop=1;jettySize=auto;html=1;" edge="1" parent="1" source="8QLlg-33kmUOQYi8h0Aq-1" target="8QLlg-33kmUOQYi8h0Aq-5">
          <mxGeometry y="15" relative="1" as="geometry">
            <mxPoint as="offset" />
          </mxGeometry>
        </mxCell>
        <mxCell id="8QLlg-33kmUOQYi8h0Aq-1" value="&lt;ul&gt;&lt;li&gt;main.cpp&lt;/li&gt;&lt;li&gt;Makefile&lt;/li&gt;&lt;/ul&gt;" style="rounded=1;absoluteArcSize=1;html=1;arcSize=10;align=left;verticalAlign=top;" vertex="1" parent="1">
          <mxGeometry x="60" y="70" width="180" height="190" as="geometry" />
        </mxCell>
        <mxCell id="8QLlg-33kmUOQYi8h0Aq-9" value="tforc wrapper&lt;br&gt;with clang++" style="edgeStyle=orthogonalEdgeStyle;rounded=0;orthogonalLoop=1;jettySize=auto;html=1;" edge="1" parent="1" source="8QLlg-33kmUOQYi8h0Aq-5" target="8QLlg-33kmUOQYi8h0Aq-6">
          <mxGeometry y="25" relative="1" as="geometry">
            <mxPoint as="offset" />
          </mxGeometry>
        </mxCell>
        <mxCell id="8QLlg-33kmUOQYi8h0Aq-5" value="&lt;ul&gt;&lt;li&gt;/ tforc_callback&lt;/li&gt;&lt;ul&gt;&lt;li&gt;main_CB.cpp&lt;/li&gt;&lt;/ul&gt;&lt;li&gt;/ tforc_query&lt;/li&gt;&lt;ul&gt;&lt;li&gt;main.query&lt;/li&gt;&lt;/ul&gt;&lt;li&gt;main.cpp&lt;/li&gt;&lt;li&gt;Makefile&lt;/li&gt;&lt;/ul&gt;" style="rounded=1;absoluteArcSize=1;html=1;arcSize=10;align=left;verticalAlign=top;" vertex="1" parent="1">
          <mxGeometry x="340" y="70" width="180" height="190" as="geometry" />
        </mxCell>
        <mxCell id="8QLlg-33kmUOQYi8h0Aq-6" value="&lt;ul&gt;&lt;li&gt;/ tforc_build&lt;/li&gt;&lt;ul&gt;&lt;li&gt;main.ll&lt;/li&gt;&lt;li&gt;main_instr.ll&lt;/li&gt;&lt;li&gt;...&lt;/li&gt;&lt;/ul&gt;&lt;li&gt;/ tforc_callback&lt;/li&gt;&lt;ul&gt;&lt;li&gt;main_CB.cpp&lt;/li&gt;&lt;/ul&gt;&lt;li&gt;/ tforc_query&lt;/li&gt;&lt;ul&gt;&lt;li&gt;main.query&lt;/li&gt;&lt;/ul&gt;&lt;li&gt;main.cpp&lt;/li&gt;&lt;li&gt;Makefile&lt;/li&gt;&lt;li&gt;executable&lt;/li&gt;&lt;/ul&gt;" style="rounded=1;absoluteArcSize=1;html=1;arcSize=10;align=left;verticalAlign=top;" vertex="1" parent="1">
          <mxGeometry x="620" y="70" width="180" height="190" as="geometry" />
        </mxCell>
        <mxCell id="8QLlg-33kmUOQYi8h0Aq-7" value="...&lt;br&gt;clang++ main.cpp -o executable&lt;br&gt;..." style="shape=note;size=20;whiteSpace=wrap;html=1;align=left;" vertex="1" parent="1">
          <mxGeometry x="110" y="180" width="190" height="70" as="geometry" />
        </mxCell>
        <mxCell id="8QLlg-33kmUOQYi8h0Aq-11" value="" style="html=1;verticalAlign=bottom;endArrow=open;dashed=1;endSize=8;rounded=0;" edge="1" parent="1" source="8QLlg-33kmUOQYi8h0Aq-7">
          <mxGeometry relative="1" as="geometry">
            <mxPoint x="340" y="120" as="sourcePoint" />
            <mxPoint x="120" y="120" as="targetPoint" />
          </mxGeometry>
        </mxCell>
      </root>
    </mxGraphModel>
  </diagram>
</mxfile>
